HIERARCHY
ROOT Hips
{
	OFFSET 0.000000 8.830580 0.000000
	CHANNELS 6 Xposition Yposition Zposition Zrotation Yrotation Xrotation 
	JOINT Spine
	{
		OFFSET 0.000000 0.010000 0.000000
		CHANNELS 3 Zrotation Yrotation Xrotation
		JOINT Spine1
		{
			OFFSET 0.000000 2.459130 0.000000
			CHANNELS 3 Zrotation Yrotation Xrotation
			JOINT Neck
			{
				OFFSET 0.000000 2.484630 0.000000
				CHANNELS 3 Zrotation Yrotation Xrotation
				JOINT Head_virtual
				{
					OFFSET 0.000000 0.000000 0.000000
					CHANNELS 3 Zrotation Yrotation Xrotation
					JOINT Head
					{
						OFFSET 0.000000 0.927525 0.000000
						CHANNELS 3 Zrotation Yrotation Xrotation
						End Site
						{
							OFFSET 0.000000 0.000000 0.000000
						}
					}
				}
				JOINT LeftUpArm_virtual
				{
					OFFSET 0.000000 0.000000 0.000000
					CHANNELS 3 Zrotation Yrotation Xrotation
					JOINT LeftUpArm
					{
						OFFSET 1.248820 0.000000 0.000000
						CHANNELS 3 Zrotation Yrotation Xrotation
						JOINT LeftForeArm
						{
							OFFSET 2.597580 0.000000 0.000000
							CHANNELS 3 Zrotation Yrotation Xrotation
							JOINT LeftHand
							{
								OFFSET 2.455420 0.000000 0.000000
								CHANNELS 3 Zrotation Yrotation Xrotation
								End Site
								{
									OFFSET 0.000000 0.000000 0.000000
								}
							}
						}
					}
				}
				JOINT RightUpArm_virtual
				{
					OFFSET -0.000000 -0.000000 -0.000000
					CHANNELS 3 Zrotation Yrotation Xrotation
					JOINT RightUpArm
					{
						OFFSET -1.248820 -0.000000 -0.000000
						CHANNELS 3 Zrotation Yrotation Xrotation
						JOINT RightForeArm
						{
							OFFSET -2.597580 -0.000000 -0.000000
							CHANNELS 3 Zrotation Yrotation Xrotation
							JOINT RightHand
							{
								OFFSET -2.455420 -0.000000 -0.000000
								CHANNELS 3 Zrotation Yrotation Xrotation
								End Site
								{
									OFFSET 0.000000 0.000000 0.000000
								}
							}
						}
					}
				}
			}
		}
	}
	JOINT LeftUpLeg
	{
		OFFSET 1.271939 0.000000 0.000000
		CHANNELS 3 Zrotation Yrotation Xrotation
		JOINT LeftLowLeg
		{
			OFFSET 0.000000 -4.342910 0.000000
			CHANNELS 3 Zrotation Yrotation Xrotation
			JOINT LeftFoot
			{
				OFFSET 0.000000 -4.487670 0.000000
				CHANNELS 3 Zrotation Yrotation Xrotation
				JOINT LeftToeBase
				{
					OFFSET 0.000000 0.000000 1.515070
					CHANNELS 3 Zrotation Yrotation Xrotation
					End Site
					{
						OFFSET 0.000000 0.000000 0.000000
					}
				}
			}
		}
	}
	JOINT RightUpLeg
	{
		OFFSET -1.271939 0.000000 0.000000
		CHANNELS 3 Zrotation Yrotation Xrotation
		JOINT RightLowLeg
		{
			OFFSET 0.000000 -4.342910 0.000000
			CHANNELS 3 Zrotation Yrotation Xrotation
			JOINT RightFoot
			{
				OFFSET 0.000000 -4.487670 0.000000
				CHANNELS 3 Zrotation Yrotation Xrotation
				JOINT RightToeBase
				{
					OFFSET 0.000000 0.000000 1.515070
					CHANNELS 3 Zrotation Yrotation Xrotation
					End Site
					{
						OFFSET 0.000000 0.000000 0.000000
					}
				}
			}
		}
	}
}
MOTION
Frames: 11
Frame Time: 0.041667
-17.974711 8.995898 37.409160 -176.322597 -2.751154 -165.207451 5.704842 0.124253 -27.225869 -3.224323 1.144790 10.257770 0.000000 0.000000 0.000000 12.807657 10.046729 -4.977420 -14.859145 -6.363369 -75.381949 -29.577900 -3.220140 14.291600 -37.238602 -22.007299 9.304710 0.000000 -33.917999 0.000000 16.181400 6.893720 21.339701 24.895201 -6.178670 3.355380 27.836800 -1.334310 40.653015 0.000000 63.779900 0.000000 7.139160 -11.234600 40.014099 6.686067 -24.213669 -11.840622 0.000000 0.000000 5.916170 -1.944700 20.621620 -4.395004 0.000000 0.000000 -10.929130 2.925016 28.320451 -10.884418 0.000000 0.000000 5.196150 3.061393 -31.936993 1.835752 0.000000 0.000000 -19.521860 
-17.979378 8.997370 37.413221 -176.314698 -2.836562 -165.331334 5.816964 0.217088 -27.170411 -3.490506 1.093561 10.345805 0.000000 0.000000 0.000000 13.154995 9.798791 -4.802216 -14.691808 -6.428915 -75.190986 -29.457800 -3.207530 14.383300 -37.019501 -22.692200 8.888820 0.000000 -35.310200 0.000000 16.521999 6.262520 21.814199 24.526300 -6.131700 3.178410 27.173201 -2.228990 41.040985 0.000000 65.671097 0.000000 10.902400 -12.322100 37.832401 6.665772 -24.351768 -11.772054 0.000000 0.000000 5.932130 -1.949042 20.638583 -4.343543 0.000000 0.000000 -10.938140 2.981132 28.233759 -10.791996 0.000000 0.000000 5.246750 3.104601 -31.936686 1.843289 0.000000 0.000000 -19.536750 
-17.983925 8.998778 37.418097 -176.293485 -2.883921 -165.475821 5.916043 0.298989 -27.076899 -3.657602 1.054095 10.461891 0.000000 0.000000 0.000000 13.422799 9.531602 -4.643374 -14.519498 -6.590264 -75.082398 -29.397900 -3.244770 14.374400 -36.862900 -23.105101 8.559790 0.000000 -36.591499 0.000000 16.741400 5.843350 22.331301 24.245100 -6.151160 3.098600 26.647301 -3.037230 41.140991 0.000000 66.823898 0.000000 14.926300 -12.247800 34.123501 6.649294 -24.532598 -11.695964 0.000000 0.000000 5.982100 -1.979446 20.732537 -4.329338 0.000000 0.000000 -10.955960 3.096674 27.914252 -10.648850 0.000000 0.000000 5.260620 3.041561 -31.715492 1.934462 0.000000 0.000000 -19.541640 
-17.987864 8.999664 37.422068 -176.268223 -2.905988 -165.586637 5.980190 0.343093 -27.014123 -3.717510 1.029130 10.578726 0.000000 0.000000 0.000000 13.649655 9.247710 -4.483731 -14.432610 -6.771431 -74.947492 -29.352100 -3.280800 14.400000 -36.780998 -23.376400 8.303190 0.000000 -37.658199 0.000000 16.992100 5.647160 22.009600 24.009600 -6.227820 3.016930 26.323000 -3.858390 41.217010 0.000000 67.257301 0.000000 17.862801 -10.959100 28.243799 6.632580 -24.647037 -11.642981 0.000000 0.000000 6.039130 -1.989659 20.809432 -4.330904 0.000000 0.000000 -10.950130 3.194716 27.626035 -10.533413 0.000000 0.000000 5.258410 2.948195 -31.508312 2.033746 0.000000 0.000000 -19.571250 
-17.991277 9.000146 37.426160 -176.253207 -2.906121 -165.660900 6.028373 0.342133 -26.944519 -3.721071 0.983276 10.650886 0.000000 0.000000 0.000000 13.841868 8.953487 -4.287438 -14.473569 -6.989815 -74.848312 -29.318899 -3.281740 14.398300 -36.741600 -23.443399 8.112690 0.000000 -38.499100 0.000000 17.087799 5.517080 22.425100 23.838100 -6.328710 3.033470 26.107100 -4.505260 41.397003 0.000000 67.155197 0.000000 19.411900 -8.879500 21.186001 6.613406 -24.720024 -11.618072 0.000000 0.000000 6.086590 -1.969590 20.884598 -4.321938 0.000000 0.000000 -10.944710 3.239774 27.473020 -10.474273 0.000000 0.000000 5.269210 2.939439 -31.378323 2.066773 0.000000 0.000000 -19.554360 
-17.994215 9.000588 37.429002 -176.234484 -2.901009 -165.780238 6.047167 0.234831 -26.864444 -3.569278 0.896331 10.786736 0.000000 0.000000 0.000000 13.864577 8.722539 -4.089550 -14.576922 -7.250141 -74.769879 -29.342699 -3.245890 14.351300 -36.736198 -23.338100 8.038380 0.000000 -39.103001 0.000000 17.055700 5.506860 21.402500 23.696699 -6.369170 3.064810 25.926300 -5.208420 41.746002 0.000000 66.972504 0.000000 19.054501 -6.701830 14.710400 6.562454 -24.726191 -11.529928 0.000000 0.000000 6.134610 -1.936954 20.898744 -4.314956 0.000000 0.000000 -10.935220 3.327293 27.275020 -10.340793 0.000000 0.000000 5.256270 2.880976 -31.222951 2.129449 0.000000 0.000000 -19.537000 
-17.996859 9.000853 37.430507 -176.208739 -2.885439 -165.881028 6.069692 0.107215 -26.838250 -3.361396 0.802538 10.969889 0.000000 0.000000 0.000000 13.755493 8.533148 -3.839545 -14.683362 -7.560128 -74.651471 -29.349001 -3.217740 14.381000 -36.773701 -23.135500 8.014920 0.000000 -39.431702 0.000000 17.046801 5.552150 21.350201 23.639700 -6.486370 3.063410 25.680300 -5.954070 42.394012 0.000000 66.991096 0.000000 16.617800 -5.130940 9.309330 6.530029 -24.769068 -11.436141 0.000000 0.000000 6.149980 -1.898065 20.965194 -4.307447 0.000000 0.000000 -10.951430 3.400644 27.135967 -10.224895 0.000000 0.000000 5.239780 2.871523 -31.081824 2.175914 0.000000 0.000000 -19.568740 
-17.999311 9.000997 37.431881 -176.178723 -2.846335 -165.928549 6.098418 -0.034161 -26.857105 -3.107756 0.696979 11.119433 0.000000 0.000000 0.000000 13.710242 8.255294 -3.526872 -14.969830 -7.870189 -74.417659 -29.367500 -3.187290 14.456700 -36.823502 -22.825100 8.034710 0.000000 -39.424801 0.000000 16.982800 5.662000 22.053400 23.603600 -6.594460 3.069170 25.456301 -6.809360 43.248993 0.000000 67.174103 0.000000 12.871300 -4.038820 5.437390 6.514715 -24.741846 -11.385645 0.000000 0.000000 6.151960 -1.925980 20.956609 -4.327339 0.000000 0.000000 -10.963510 3.438612 27.079584 -10.169229 0.000000 0.000000 5.214650 2.833610 -31.008250 2.234680 0.000000 0.000000 -19.579290 
-18.002103 9.000994 37.432987 -176.152533 -2.786393 -165.933673 6.151013 -0.167222 -26.931725 -2.895307 0.579354 11.305586 0.000000 0.000000 0.000000 13.692736 8.015854 -3.176798 -15.364145 -8.104865 -74.158316 -29.325199 -3.152880 14.318000 -36.992802 -22.269699 8.261470 0.000000 -39.186298 0.000000 16.502899 5.983720 21.676701 23.576799 -6.761670 3.111310 25.376900 -7.592870 43.881012 0.000000 67.370003 0.000000 9.481350 -3.511900 2.510980 6.508619 -24.711996 -11.365423 0.000000 0.000000 6.140260 -1.796895 21.023311 -4.274083 0.000000 0.000000 -11.037120 3.445220 27.016946 -10.171940 0.000000 0.000000 5.216750 2.854779 -30.876833 2.244193 0.000000 0.000000 -19.578070 
-18.005107 9.000935 37.433858 -176.135069 -2.688902 -165.899075 6.246004 -0.291294 -27.059779 -2.737359 0.431805 11.535732 0.000000 0.000000 0.000000 13.692293 7.747304 -2.836434 -15.938275 -8.261644 -73.746917 -29.343300 -3.087980 14.288400 -37.034100 -21.674400 8.293600 0.000000 -38.717098 0.000000 15.710500 6.462700 21.804701 23.504999 -6.944690 2.898380 25.482500 -8.463320 44.498993 0.000000 67.574203 0.000000 6.448500 -3.715230 0.359383 6.506122 -24.692660 -11.357450 0.000000 0.000000 6.079380 -1.909658 21.052451 -4.333447 0.000000 0.000000 -10.929040 3.399685 27.085776 -10.220339 0.000000 0.000000 5.209710 2.862923 -30.848045 2.255636 0.000000 0.000000 -19.560610 
-18.008562 9.000685 37.435216 -176.130735 -2.563122 -165.857629 6.390138 -0.371137 -27.146416 -2.685557 0.256517 11.708819 0.000000 0.000000 0.000000 13.714604 7.482221 -2.496153 -16.543715 -8.351683 -73.246985 -29.361401 -3.018570 14.390400 -36.985001 -21.000601 8.120270 0.000000 -38.036499 0.000000 14.397500 6.687070 22.152100 23.432400 -7.105570 2.635050 25.760300 -9.508080 44.760010 0.000000 67.878601 0.000000 4.168630 -4.735740 -3.434110 6.479316 -24.620430 -11.359513 0.000000 0.000000 6.038730 -1.922463 21.073790 -4.330105 0.000000 0.000000 -10.964030 3.324400 27.194474 -10.291489 0.000000 0.000000 5.220060 2.902775 -30.832101 2.235343 0.000000 0.000000 -19.548030 
